PathFileType	4	(X/Y/Z)	c:/Users/goper/Files/vsCode/490R/osim_files/A02/A02_Fast_04.trc
DataRate	CameraRate	NumFrames	NumMarkers	Units                	OrigDataRate	OrigDataStartFrame	OrigNumFrames
250.00	250.00	8	36	mm	250.0	1264	2526
                Frame#	Time	Mobility_markerset:LPSIS			Mobility_markerset:LASIS			Mobility_markerset:LTH1			Mobility_markerset:LTH2			Mobility_markerset:LTH3			Mobility_markerset:LTH4			Mobility_markerset:LLFE			Mobility_markerset:LMFE			Mobility_markerset:LSH1			Mobility_markerset:LSH2			Mobility_markerset:LSH3			Mobility_markerset:LSH4			Mobility_markerset:LLMAL			Mobility_markerset:LMMAL			Mobility_markerset:LCAL			Mobility_markerset:LMTP5			Mobility_markerset:LTOE			Mobility_markerset:LMTP1			Mobility_markerset:RPSIS			Mobility_markerset:RASIS			Mobility_markerset:RTH1			Mobility_markerset:RTH2			Mobility_markerset:RTH3			Mobility_markerset:RTH4			Mobility_markerset:RLFE			Mobility_markerset:RMFE			Mobility_markerset:RSH1			Mobility_markerset:RSH2			Mobility_markerset:RSH3			Mobility_markerset:RSH4			Mobility_markerset:RLMAL			Mobility_markerset:RMMAL			Mobility_markerset:RCAL			Mobility_markerset:RMTP1			Mobility_markerset:RTOE			Mobility_markerset:RMTP5		
		X1	Y1	Z1	X2	Y2	Z2	X3	Y3	Z3	X4	Y4	Z4	X5	Y5	Z5	X6	Y6	Z6	X7	Y7	Z7	X8	Y8	Z8	X9	Y9	Z9	X10	Y10	Z10	X11	Y11	Z11	X12	Y12	Z12	X13	Y13	Z13	X14	Y14	Z14	X15	Y15	Z15	X16	Y16	Z16	X17	Y17	Z17	X18	Y18	Z18	X19	Y19	Z19	X20	Y20	Z20	X21	Y21	Z21	X22	Y22	Z22	X23	Y23	Z23	X24	Y24	Z24	X25	Y25	Z25	X26	Y26	Z26	X27	Y27	Z27	X28	Y28	Z28	X29	Y29	Z29	X30	Y30	Z30	X31	Y31	Z31	X32	Y32	Z32	X33	Y33	Z33	X34	Y34	Z34	X35	Y35	Z35	X36	Y36	Z36

1264	5.05200	-734.80414	938.04065	324.25345	-869.25122	899.78125	419.45026	-747.08173	655.03894	435.80280	-752.02094	607.43268	434.84583	-802.36505	655.10468	463.44229	-799.36670	609.78925	456.81592	-780.60724	437.60934	424.97452	0.00000	0.00000	0.00000	-682.58020	431.71713	406.19992	-647.13239	404.71432	409.10623	-715.24030	383.84821	425.81674	-675.47870	362.42929	426.29691	-480.57080	219.21010	370.07523	-506.24701	208.51701	290.92419	-456.66318	276.19168	323.87564	-437.65991	106.35015	366.24637	-484.59683	69.64735	307.31592	-462.00122	103.09564	257.13013	-748.12170	953.54315	223.65097	0.00000	0.00000	0.00000	-914.81317	608.97137	153.80009	-930.43414	566.87146	155.64226	-974.63623	623.30365	156.80042	-980.25116	580.53125	156.07310	-969.07434	460.95474	149.50089	-985.84058	470.07785	282.70950	-990.69916	277.14267	175.08975	-1003.36469	233.23412	186.80556	-1049.38342	288.90643	172.97902	-1054.61816	242.47899	181.42825	-1034.95447	81.43267	188.45731	-1044.51538	90.14028	276.83096	-985.84161	62.73606	234.51375	-1171.62708	68.63345	270.74469	-1192.64453	81.75703	235.47649	-1165.12671	61.36644	178.62657
1265	5.05600	-740.33875	938.89771	324.46835	-874.71143	900.78265	419.49579	-754.52911	654.77661	436.57568	-760.93799	607.78162	435.90036	-810.33350	655.58051	463.90356	-807.82434	610.29584	457.59918	-792.41815	437.59039	425.88049	0.00000	0.00000	0.00000	-694.62793	432.47137	407.73395	-658.96643	405.72360	410.59308	-726.99158	384.21558	426.69800	-687.14978	363.06900	427.33844	-490.85352	221.71751	371.07541	-515.74536	212.12558	291.86810	-465.66315	278.81125	325.53116	-449.28629	108.27910	367.05511	-496.09750	72.68374	307.53714	-472.59607	106.16589	257.60532	-753.62646	954.59302	223.93457	0.00000	0.00000	0.00000	-918.93353	610.00134	154.06744	-934.54688	567.68530	155.98601	-978.52087	624.22516	156.71237	-983.88916	581.22150	156.23761	-972.13373	461.56107	149.67030	-988.88867	470.53021	282.92484	-992.35638	277.63162	175.20604	-1004.76648	233.65515	186.84277	-1051.25952	288.93015	173.10938	-1056.20142	242.44496	181.53629	-1035.28247	81.53503	188.51044	-1044.93518	90.17198	276.84427	-986.08722	62.95432	234.59132	-1172.34253	68.15507	271.24789	-1193.03979	81.06406	235.44627	-1165.34045	60.78297	178.58282
1266	5.06000	-745.57025	939.87506	324.73718	-879.81903	901.70886	419.54462	-762.46191	654.53955	437.24112	-769.56885	607.64258	436.76724	-818.41412	656.07611	464.33115	-816.48108	610.82880	458.25040	-804.03882	437.88129	426.80957	0.00000	0.00000	0.00000	-706.67072	433.32700	409.18192	-670.81860	406.82849	412.02377	-738.73346	384.71674	427.62177	-698.81909	363.75226	428.34515	-501.26538	224.00116	372.07211	-525.52319	215.47560	292.72992	-474.80508	281.09045	327.29102	-461.12753	110.22599	367.75836	-507.81439	75.42438	307.64084	-483.58667	109.05821	257.77277	-759.09198	955.60040	224.17082	0.00000	0.00000	0.00000	-923.09875	610.93341	154.30470	-938.55267	568.35504	156.09860	-982.44336	624.77802	157.18617	-987.99622	581.62830	156.47562	-975.14581	462.19281	149.85902	-992.00214	470.96759	283.10959	-994.07037	278.09970	175.32571	-1006.27209	233.97758	187.01822	-1053.06531	288.93921	173.15479	-1057.52478	242.43503	181.60870	-1035.66284	81.62675	188.61981	-1045.23718	90.26973	276.95770	-986.31854	63.17065	234.65164	-1172.21899	67.34415	270.70819	-1193.41345	80.36293	235.39792	-1165.62708	60.21916	178.57466
1267	5.06400	-751.09460	940.68805	324.92047	-885.46179	902.84900	419.39569	-771.09479	654.11188	437.88211	-777.99835	606.81024	437.12650	-826.49823	656.63989	464.75467	-825.25360	611.42450	458.90085	-817.95599	436.64984	427.06018	0.00000	0.00000	0.00000	-718.71356	434.24826	410.39444	-682.69708	407.88928	413.30225	-750.61572	385.29419	428.36307	-710.54498	364.54550	429.12012	-512.11969	225.90593	373.02692	-535.45361	218.42320	293.42615	-484.13501	283.07150	329.09344	-473.50681	111.71851	368.52347	-520.04626	78.00681	307.57944	-494.80972	111.61588	258.47043	-764.64459	956.63434	224.41147	0.00000	0.00000	0.00000	-927.02826	611.99182	154.53018	-942.39886	569.22137	156.28232	-986.06488	625.57916	157.11621	-991.86804	582.15839	156.67339	-978.09027	462.83304	150.00581	-995.38666	471.50531	283.37540	-995.78455	278.78732	175.28699	-1007.59668	234.43861	187.09398	-1054.74487	289.00424	173.29179	-1059.05750	242.54283	181.67798	-1035.86133	81.86558	188.73849	-1045.63489	90.23528	276.97165	-986.54059	63.37181	234.72272	-1172.52661	66.74421	270.68274	-1193.76135	79.79244	235.45187	-1165.81458	59.84185	178.59399
1268	5.06800	-756.30969	941.80530	325.18268	-891.00159	903.88037	419.28253	-779.13763	653.97369	438.58572	-786.91406	607.28442	438.11664	-834.48010	657.46967	465.64566	-833.99817	612.05737	459.53348	-827.23425	437.32578	426.40042	0.00000	0.00000	0.00000	-730.71216	435.20935	411.52893	-694.58319	409.00494	414.45023	-762.54761	385.95538	428.97552	-722.43359	365.40570	429.85516	-523.21655	227.69597	374.00073	-545.58203	221.01767	294.31189	-493.61200	284.80453	330.85117	-486.29156	113.06126	369.25220	-532.17236	80.38098	307.25742	-506.60358	114.10540	259.03989	-770.07477	957.74286	224.57594	-932.54260	932.93030	175.64343	-931.11169	612.93958	154.73550	-946.12299	569.99994	156.48499	0.00000	0.00000	0.00000	-995.38672	582.82269	156.79903	-981.12988	463.41995	150.17787	-997.65033	471.54910	283.35907	-997.66144	279.05981	175.75723	-1009.04498	234.86740	187.21245	-1056.58594	289.10837	173.34563	-1060.43237	242.58420	181.79758	-1036.07275	82.06637	188.86568	-1046.00256	90.24660	276.98080	-986.69348	63.56451	234.77682	-1172.79456	66.29073	270.78815	-1194.08508	79.26451	235.54543	-1165.98718	59.51771	178.63213
1269	5.07200	-761.72974	942.81201	325.37787	-896.48291	904.99634	419.13092	-787.20441	653.89337	439.26474	-795.44611	606.52521	438.89398	-842.58453	658.22992	466.16013	-842.81354	612.74701	460.04349	-836.50562	438.39700	426.11172	0.00000	0.00000	0.00000	-742.87579	436.15268	412.77734	-706.63037	410.05383	415.50449	-774.32379	386.82098	429.61157	-734.36499	366.22791	430.47281	-534.37683	229.29680	374.95520	-556.16400	223.54305	295.05240	-503.22330	286.26178	332.64902	-499.39630	114.08651	369.96179	-545.17743	82.67493	307.15176	-518.68829	116.37088	259.65936	-775.65125	958.85291	224.77776	-937.86951	933.83984	175.64020	-935.01184	613.95184	154.88220	-949.99017	570.81952	156.65540	0.00000	0.00000	0.00000	-999.08789	583.34357	156.94626	-984.14642	464.06625	150.32098	-1000.62164	471.98035	283.53668	-999.32153	279.56351	175.89821	-1010.31476	235.34459	187.30890	-1058.39917	289.15805	173.52196	-1061.89404	242.68150	181.90172	-1036.25378	82.26286	189.01501	-1046.35400	90.29442	276.97058	-986.80786	63.79771	234.80630	-1173.09216	65.83737	270.91925	-1194.44226	78.76013	235.65860	-1166.19995	59.20591	178.71936
1270	5.07600	-767.07910	943.95111	325.55539	-901.99384	906.06873	418.88351	-795.27435	653.86475	439.91992	-804.35071	606.92761	439.48923	-850.73724	659.06348	466.59158	-851.52686	613.65771	460.53946	-850.78906	440.17953	429.41022	0.00000	0.00000	0.00000	-754.84222	437.17477	413.82120	-718.62207	411.06116	416.52518	-786.44794	387.55994	430.09900	-746.31958	367.09021	431.05145	-545.89746	230.53764	375.87576	-566.82123	225.81131	295.95499	-513.17987	287.37936	334.29257	-512.60944	114.98868	370.70605	-558.52527	84.72543	307.11111	-531.15961	117.98386	259.95782	-781.04102	960.02539	224.92874	0.00000	0.00000	0.00000	-939.02283	614.92267	155.01981	-953.81024	571.55170	156.81943	-998.92407	626.96332	157.79039	-1003.25513	583.77814	157.13852	-987.01196	464.69653	150.44313	-1003.76910	472.56686	283.68799	-1000.99280	280.05261	175.93314	-1011.80109	235.76820	187.37222	-1060.02026	289.31268	173.58362	-1063.39111	242.74953	182.03209	-1036.60339	82.40047	189.20081	-1046.61255	90.31818	276.95676	-986.93549	64.02760	234.85106	-1173.27881	65.30456	271.01840	-1194.70984	78.30413	235.81882	-1166.44397	58.94157	178.81827
1271	5.08000	-772.22992	945.14539	325.74158	-907.26056	907.15942	418.69534	-803.36298	653.94183	440.57724	-813.25098	607.67578	440.50299	-858.84595	659.97577	467.00064	-860.16229	614.55334	461.06223	0.00000	0.00000	0.00000	0.00000	0.00000	0.00000	-766.83386	438.06967	415.36743	-730.63361	412.04642	417.46881	-798.40723	388.38290	430.61963	-758.34668	367.96756	431.63022	-557.45557	231.73181	376.79660	-577.82166	227.78285	296.82532	-523.69232	288.22235	335.49417	-526.15533	115.65292	371.30112	-572.00946	86.60123	307.21600	-542.83893	119.35128	260.71710	-786.49683	961.13947	225.07376	-948.65198	935.66571	175.50014	-942.99829	615.81097	155.15381	-957.38593	572.37128	156.92085	-1002.67200	627.50317	158.08803	-1006.92395	584.26086	157.36290	-989.92004	465.28702	150.58147	-1006.60217	472.94427	283.78986	-1002.72449	280.61447	176.03278	-1013.09698	236.22037	187.42488	-1061.47522	289.39911	173.81749	-1064.67883	242.82599	182.08957	-1036.76477	82.62659	189.22339	-1046.84558	90.35896	276.92191	-987.03662	64.26836	234.90736	-1173.49731	64.83270	271.12613	-1195.00635	77.84677	235.94844	-1166.67456	58.65623	178.93599
